<svg width="240" height="240" viewBox="0 0 240 240" fill="none" xmlns="http://www.w3.org/2000/svg">
    <rect x="16" y="16" width="208" height="208" rx="104" fill="#FDC931" />
    <rect x="40" y="40" width="160" height="160" rx="80" fill="#37364C" />
    <path
        d="M90.0782 84.174C90.7859 84.6047 91.7087 84.3802 92.1394 83.6726C92.5702 82.9649 92.3457 82.0421 91.638 81.6113L90.0782 84.174ZM62.2206 63.6281C60.1105 60.674 58.9588 59.1382 57.8164 58.1259C56.649 57.0914 55.4598 56.5953 53.6961 55.6713L52.3039 58.3287C54.3502 59.4008 55.0181 59.6546 55.8268 60.3712C56.6604 61.1099 57.6038 62.326 59.7794 65.3719L62.2206 63.6281ZM91.638 81.6113C90.6954 81.0376 90.0079 80.3168 89.3483 79.4409C89.0124 78.995 88.6937 78.5228 88.3427 78.001C87.9981 77.4889 87.6241 76.9314 87.2071 76.3691C85.4695 74.0259 83.0377 71.6757 77.9517 70.0696L77.0483 72.9304C81.4623 74.3243 83.3904 76.2588 84.7973 78.1561C85.1665 78.6539 85.5025 79.1538 85.8535 79.6755C86.198 80.1876 86.5602 80.7257 86.9519 81.2458C87.7473 82.3019 88.7017 83.3361 90.0782 84.174L91.638 81.6113ZM77.9517 70.0696C75.5078 69.2978 73.4998 68.8479 71.8081 68.5129C70.0731 68.1694 68.8168 67.9711 67.6724 67.6733C66.5826 67.3898 65.725 67.0438 64.9098 66.4738C64.0852 65.8972 63.227 65.0372 62.2206 63.6281L59.7794 65.3719C60.9158 66.9628 62.0041 68.1028 63.1907 68.9324C64.3866 69.7687 65.6049 70.2352 66.9169 70.5766C68.1743 70.9038 69.6456 71.143 71.2254 71.4558C72.8484 71.7771 74.7422 72.2021 77.0483 72.9304L77.9517 70.0696Z"
        fill="#FDC931" />
    <path d="M86.5228 86.4L93.7006 80.5938L94.5072 81.8173L89.516 86.3982L86.5228 86.4Z" fill="#37364C" />
    <path
        d="M89.6555 84.7199L85.6682 88.1665C77.9556 94.8269 75.1616 105.268 77.6354 114.663C78.5668 118.138 80.182 121.469 82.5686 124.406L87.2544 130.15L110.392 110.184L108.239 107.537L89.6555 84.7199Z"
        fill="#FDC931" />
    <path
        d="M159.2 118.4L143.76 99.4369L137.852 92.1947L116.242 110.693L116.257 110.707L89.932 133.437L111.338 159.73C120.186 170.607 135.96 172.033 146.525 162.915L156.101 154.64C166.665 145.522 168.062 129.292 159.2 118.4Z"
        fill="#FEFEFE" />
    <path
        d="M130.445 83.0766C121.583 72.1989 105.808 70.7738 95.2435 79.8919L92.8569 81.9569L112.386 105.952L113.783 107.668L135.393 89.1699L130.445 83.0766Z"
        fill="#FEFEFE" />
    <path d="M171 209.5L225 224L209.5 171L171 209.5Z" fill="#FDC931" />
</svg>
